<?xml version="1.0" encoding="utf-8"?>
<!-- Generator: Adobe Illustrator 22.0.1, SVG Export Plug-In . SVG Version: 6.00 Build 0)  -->
<svg version="1.1" id="Layer_1" xmlns="http://www.w3.org/2000/svg" xmlns:xlink="http://www.w3.org/1999/xlink" x="0px" y="0px"
	 viewBox="0 0 792 612" style="enable-background:new 0 0 792 612;" xml:space="preserve">
<style type="text/css">
	.st0{fill:#ED2024;}
	.st1{fill:#9A1B1F;}
</style>
<g>
	<g>
		<polygon class="st0" points="304.6,99.3 274.2,59.6 506,59.4 366.3,282.8 415.2,282.9 581,18.4 201.5,18.4 252.9,99.2 		"/>
		<polygon class="st0" points="490.8,282.3 515.6,322 287.9,322 433.7,88.7 385.4,88.8 213,362.9 592.4,362.9 540.9,282.3 		"/>
		<polygon class="st1" points="287.9,322 261,362.5 311.8,322 		"/>
		<polygon class="st1" points="506,59.4 533.6,18.6 484.3,59.4 		"/>
	</g>
	<path d="M26.8,455.4c9.3-9.3,21.7-14.5,34.9-14.5c9.7,0,19.3,2.9,27.3,8c4.8,3.1,8.4,6.9,11.6,11.1v-59.1h17.2v135.6h-17.2v-16.6
		c-9,11.8-23.3,19.5-39.3,19.5c-14.9,0-28-6.5-37.2-17c-7.2-8.6-11.8-19.8-11.8-32C12.3,477.1,17.5,464.5,26.8,455.4z M65.3,526.4
		c19.5,0,35.5-16.4,35.5-36.4c0-20-16-36.2-35.5-36.2c-19.6,0-35.7,16.2-35.7,36.2C29.7,509.9,45.7,526.4,65.3,526.4z"/>
	<path d="M152.1,400.8v19.1H135v-19.1H152.1z M152.1,443.4v93.1H135v-93.1H152.1z"/>
	<path class="st0" d="M259.5,536.5h-92.1l68.1-79.9h-58v-13.2h87l-68.3,79.7h63.3V536.5z"/>
	<path d="M330.7,461.3c-1.9-0.4-3.8-0.6-5.7-0.6c-8.2,0-16,3.2-21.2,8.8c-2.9,3.2-5,6.7-5.9,10.5c-0.8,2.3-1,4.6-1,7.4v49h-17.2
		v-93.1h17.2V459c0,0,11.3-15.5,32-15.6h1.7V461.3z"/>
	<path d="M372.5,518c11.6,10.3,31.9,8.8,42-2.7c6.5-7.1,6.5-19.1,6.5-27.3v-45.2h17.6v93.7h-17.6v-12.8c0,0-6.3,10.3-21.9,13.9
		c-14.7,3.2-33.6-0.2-43.1-12.2c-10.1-12.8-9.9-31.1-9.9-46.5v-36.1h17.9v44.8c0,9,0.6,20.4,6.1,27.7
		C370.7,516.2,371.7,517,372.5,518z"/>
	<path d="M566.8,489.2c0,13.2-5.1,25.6-14.5,34.9c-9.3,9.3-21.7,14.5-34.9,14.5c-9.5,0-19.1-2.9-27.3-8.2
		c-4.6-3.1-8.2-6.7-11.6-10.9l-4.2-5.3v58.4h-17.2V443.2h17.2v22.3c0.6-1,1.1-1.7,1.7-2.5c2.5-3.6,5.1-7.1,8.6-10.1
		c2.9-2.7,6.1-5,9.5-6.9c3.6-1.9,7.4-3.4,11.3-4.4c4-1,8.2-1.5,12.4-1.5c14.9,0,28.2,6.5,37.4,17
		C562.4,465.7,566.8,476.9,566.8,489.2z M549.2,489c0-9.7-3.8-18.9-10.7-25.8c-7.1-6.9-16-10.7-25.8-10.7c-9.7,0-16.4,3.8-23.3,10.7
		c-7.1,6.9-10.9,16-10.9,25.8c0,9.7,3.8,18.9,10.9,25.7c6.9,6.9,13.5,10.7,23.3,10.7c9.7,0,18.9-3.8,25.8-10.7
		C545.4,507.8,549.2,498.7,549.2,489z"/>
	<path d="M633.4,443.4v15.1H609v78h-17.2v-78h-19.3v-15.1h19.3v-32.6H609v32.6H633.4z"/>
	<path d="M665.9,400.8v19.1h-17.2v-19.1H665.9z M665.9,443.4v93.1h-17.2v-93.1H665.9z"/>
	<path d="M728.5,541.6l-47.3-98.2h17.4l30.1,63.3l30.1-63.3H776L728.5,541.6z"/>
</g>
</svg>
