<svg xmlns="http://www.w3.org/2000/svg" viewBox="0 0 198.209 63.967">
  <defs>
    <style>
      .cls-1 {
        fill: #05a0c3;
      }

      .cls-2 {
        fill: #5dd1f6;
      }

      .cls-3 {
        fill: #fff;
      }
    </style>
  </defs>
  <g id="Group_92" data-name="Group 92" transform="translate(-439 -425.043)">
    <g id="Group_90" data-name="Group 90">
      <path id="Path_31" data-name="Path 31" class="cls-1" d="M22.451,63.967H0l.627-51.01L22.451,0Z" transform="translate(439.045 425.043)"/>
      <path id="Path_32" data-name="Path 32" class="cls-2" d="M.124,0H197.691V50.87l-198.209.14Z" transform="translate(439.518 438)"/>
    </g>
    <path id="Path_33" data-name="Path 33" class="cls-3" d="M-78.472-6.72a3.727,3.727,0,0,1,2.136,1.144A3.05,3.05,0,0,1-75.592-3.5a3.379,3.379,0,0,1-.536,1.84A3.777,3.777,0,0,1-77.76-.3a6.306,6.306,0,0,1-2.712.52,9.693,9.693,0,0,1-2.344-.288A6.941,6.941,0,0,1-84.824-.88l1.152-2.384a5.164,5.164,0,0,0,1.48.688,5.788,5.788,0,0,0,1.624.24,2.4,2.4,0,0,0,1.3-.3.966.966,0,0,0,.48-.864q0-1.088-1.712-1.088h-1.328v-2l2-2.16h-4.416V-11.2h8.1v1.984ZM-68.024.224a4.791,4.791,0,0,1-2.56-.688,4.628,4.628,0,0,1-1.752-2.008A7.179,7.179,0,0,1-72.968-5.6a7.179,7.179,0,0,1,.632-3.128,4.628,4.628,0,0,1,1.752-2.008,4.791,4.791,0,0,1,2.56-.688,4.761,4.761,0,0,1,2.544.688,4.628,4.628,0,0,1,1.752,2.008A7.179,7.179,0,0,1-63.1-5.6a7.179,7.179,0,0,1-.632,3.128A4.628,4.628,0,0,1-65.48-.464,4.761,4.761,0,0,1-68.024.224Zm0-2.592a1.434,1.434,0,0,0,1.272-.776A4.889,4.889,0,0,0-66.28-5.6a4.889,4.889,0,0,0-.472-2.456,1.434,1.434,0,0,0-1.272-.776,1.446,1.446,0,0,0-1.288.776A4.889,4.889,0,0,0-69.784-5.6a4.889,4.889,0,0,0,.472,2.456A1.446,1.446,0,0,0-68.024-2.368Zm7.872-3.36h4.672v2.336h-4.672Zm8.16-5.472h5.3a7.414,7.414,0,0,1,3.264.688A5.182,5.182,0,0,1-41.224-8.56,5.5,5.5,0,0,1-40.44-5.6a5.5,5.5,0,0,1-.784,2.96A5.182,5.182,0,0,1-43.432-.688,7.414,7.414,0,0,1-46.7,0h-5.3Zm5.168,8.672a3.247,3.247,0,0,0,2.312-.816A2.939,2.939,0,0,0-43.64-5.6a2.939,2.939,0,0,0-.872-2.256,3.247,3.247,0,0,0-2.312-.816h-2v6.144Zm13.2-6.288a4.9,4.9,0,0,1,3.3.984,3.778,3.778,0,0,1,1.136,3.016V0h-2.832V-1.12A2.609,2.609,0,0,1-34.584.144a4.006,4.006,0,0,1-1.744-.352A2.585,2.585,0,0,1-37.44-1.16a2.522,2.522,0,0,1-.376-1.368,2.22,2.22,0,0,1,.944-1.912,5.013,5.013,0,0,1,2.912-.68h1.728q-.08-1.376-1.84-1.376a4.221,4.221,0,0,0-1.264.2,3.368,3.368,0,0,0-1.088.552l-1.024-2.064A5.672,5.672,0,0,1-35.7-8.552,8.33,8.33,0,0,1-33.624-8.816Zm-.112,7.04a1.684,1.684,0,0,0,.928-.256,1.425,1.425,0,0,0,.576-.752v-.752h-1.312q-1.328,0-1.328.88a.774.774,0,0,0,.3.64A1.309,1.309,0,0,0-33.736-1.776Zm17.04-6.9L-20.44.352A4.881,4.881,0,0,1-22.04,2.6a3.973,3.973,0,0,1-2.3.648,4.649,4.649,0,0,1-1.384-.216,3.335,3.335,0,0,1-1.128-.568L-25.8.336a1.839,1.839,0,0,0,.616.376,2.046,2.046,0,0,0,.728.136,1.317,1.317,0,0,0,.712-.176,1.351,1.351,0,0,0,.472-.56l-3.712-8.784h3.12l2.128,5.3,2.144-5.3Zm11.952-.08v2.464H.2V-3.84H-4.744V0H-7.912V-11.2H.872v2.448Zm11.3,1.12A2.829,2.829,0,0,1,7.76-8.52a4.583,4.583,0,0,1,1.7-.3V-6.08a6.215,6.215,0,0,0-.688-.048A2.12,2.12,0,0,0,7.248-5.6,2.141,2.141,0,0,0,6.7-3.984V0H3.656V-8.672h2.9ZM21.1-4.32q0,.032-.048.752h-6.3a1.764,1.764,0,0,0,.744,1.032,2.484,2.484,0,0,0,1.384.36,3,3,0,0,0,1.08-.176,3.186,3.186,0,0,0,.92-.576l1.6,1.664a4.711,4.711,0,0,1-3.7,1.408A5.9,5.9,0,0,1,14.1-.432a4.3,4.3,0,0,1-1.784-1.6,4.327,4.327,0,0,1-.632-2.32,4.341,4.341,0,0,1,.616-2.3,4.3,4.3,0,0,1,1.7-1.592,5.15,5.15,0,0,1,2.448-.576,5.121,5.121,0,0,1,2.352.536A4.078,4.078,0,0,1,20.48-6.728,4.555,4.555,0,0,1,21.1-4.32ZM16.472-6.656a1.756,1.756,0,0,0-1.176.4,1.806,1.806,0,0,0-.6,1.088h3.552a1.806,1.806,0,0,0-.6-1.088A1.756,1.756,0,0,0,16.472-6.656Zm16.5,2.336q0,.032-.048.752h-6.3a1.764,1.764,0,0,0,.744,1.032,2.484,2.484,0,0,0,1.384.36,3,3,0,0,0,1.08-.176,3.186,3.186,0,0,0,.92-.576l1.6,1.664a4.711,4.711,0,0,1-3.7,1.408,5.9,5.9,0,0,1-2.672-.576,4.3,4.3,0,0,1-1.784-1.6,4.327,4.327,0,0,1-.632-2.32,4.341,4.341,0,0,1,.616-2.3,4.3,4.3,0,0,1,1.7-1.592,5.15,5.15,0,0,1,2.448-.576,5.121,5.121,0,0,1,2.352.536,4.078,4.078,0,0,1,1.672,1.552A4.555,4.555,0,0,1,32.968-4.32ZM28.344-6.656a1.756,1.756,0,0,0-1.176.4,1.806,1.806,0,0,0-.6,1.088H30.12a1.806,1.806,0,0,0-.6-1.088A1.756,1.756,0,0,0,28.344-6.656ZM44.76-8.688H41.32V-11.2H51.352v2.512H47.928V0H44.76ZM56.712-7.632A2.829,2.829,0,0,1,57.92-8.52a4.583,4.583,0,0,1,1.7-.3V-6.08a6.215,6.215,0,0,0-.688-.048,2.12,2.12,0,0,0-1.528.528,2.141,2.141,0,0,0-.552,1.616V0h-3.04V-8.672h2.9Zm5.76-1.04h3.04V0h-3.04Zm1.52-.96a1.924,1.924,0,0,1-1.344-.464,1.492,1.492,0,0,1-.512-1.152,1.492,1.492,0,0,1,.512-1.152,1.924,1.924,0,0,1,1.344-.464,1.99,1.99,0,0,1,1.344.44,1.42,1.42,0,0,1,.512,1.128,1.552,1.552,0,0,1-.512,1.192A1.9,1.9,0,0,1,63.992-9.632Zm8.784.816a4.9,4.9,0,0,1,3.3.984,3.778,3.778,0,0,1,1.136,3.016V0H74.376V-1.12A2.609,2.609,0,0,1,71.816.144a4.006,4.006,0,0,1-1.744-.352A2.585,2.585,0,0,1,68.96-1.16a2.522,2.522,0,0,1-.376-1.368,2.22,2.22,0,0,1,.944-1.912,5.013,5.013,0,0,1,2.912-.68h1.728Q74.088-6.5,72.328-6.5a4.221,4.221,0,0,0-1.264.2,3.368,3.368,0,0,0-1.088.552L68.952-7.808A5.672,5.672,0,0,1,70.7-8.552,8.33,8.33,0,0,1,72.776-8.816Zm-.112,7.04a1.684,1.684,0,0,0,.928-.256,1.425,1.425,0,0,0,.576-.752v-.752H72.856q-1.328,0-1.328.88a.774.774,0,0,0,.3.64A1.309,1.309,0,0,0,72.664-1.776Zm8.064-10.1h3.04V0h-3.04Z" transform="translate(538 469)"/>
  </g>
</svg>
